<svg xmlns="http://www.w3.org/2000/svg" viewBox="0 0 800 1000" role="img" aria-label="Artwork individual Space Drift 4Hz: lanskap simbolik mimpi dengan motif cahaya dalam"><defs><linearGradient id="sky" x2=".72" y2="1"><stop stop-color="#030810"/><stop offset=".5" stop-color="#673594"/><stop offset="1" stop-color="#020609"/></linearGradient><radialGradient id="glow"><stop stop-color="hsl(283 75% 84%)" stop-opacity=".78"/><stop offset="1" stop-color="hsl(283 70% 62%)" stop-opacity="0"/></radialGradient><filter id="blur"><feGaussianBlur stdDeviation="24"/></filter></defs><rect width="800" height="1000" fill="url(#sky)"/><circle cx="608" cy="235" r="170" fill="url(#glow)"/><g fill="#f6e8bd" opacity=".42"><circle cx="73" cy="213" r="4"/><circle cx="186" cy="292" r="1"/><circle cx="299" cy="371" r="2"/><circle cx="412" cy="450" r="3"/><circle cx="525" cy="529" r="4"/><circle cx="638" cy="128" r="1"/><circle cx="751" cy="207" r="2"/><circle cx="124" cy="286" r="3"/><circle cx="237" cy="365" r="4"/><circle cx="350" cy="444" r="1"/><circle cx="463" cy="523" r="2"/><circle cx="576" cy="122" r="3"/><circle cx="689" cy="201" r="4"/><circle cx="62" cy="280" r="1"/><circle cx="175" cy="359" r="2"/><circle cx="288" cy="438" r="3"/><circle cx="401" cy="517" r="4"/><circle cx="514" cy="116" r="1"/><circle cx="627" cy="195" r="2"/><circle cx="740" cy="274" r="3"/><circle cx="113" cy="353" r="4"/><circle cx="226" cy="432" r="1"/></g><g fill="none" stroke="#e9cc7c" opacity=".32"><ellipse cx="400" cy="420" rx="270" ry="92" transform="rotate(8 400 420)"/><ellipse cx="400" cy="420" rx="180" ry="310" transform="rotate(3 400 420)"/><circle cx="400" cy="420" r="58" fill="#e9cc7c" fill-opacity=".14"/></g><path d="M0 710L125 613 245 690 390 570 545 675 690 617 800 700V1000H0Z" fill="#061016" opacity=".82"/><path d="M0 805Q180 733 400 795T800 780V1000H0Z" fill="#02070b"/><ellipse cx="400" cy="810" rx="390" ry="38" fill="hsl(283 60% 63%)" opacity=".1" filter="url(#blur)"/><path d="M0 820Q200 770 400 820T800 810" fill="none" stroke="#e9cc7c" stroke-opacity=".18" stroke-width="4"/></svg>