<svg xmlns="http://www.w3.org/2000/svg" viewBox="0 0 800 1000" role="img" aria-label="Artwork individual Brown Dream Warm: lanskap simbolik mimpi dengan motif pulang perlahan"><defs><linearGradient id="sky" x2=".72" y2="1"><stop stop-color="#030810"/><stop offset=".5" stop-color="#673594"/><stop offset="1" stop-color="#020609"/></linearGradient><radialGradient id="glow"><stop stop-color="hsl(278 75% 84%)" stop-opacity=".78"/><stop offset="1" stop-color="hsl(278 70% 62%)" stop-opacity="0"/></radialGradient><filter id="blur"><feGaussianBlur stdDeviation="24"/></filter></defs><rect width="800" height="1000" fill="url(#sky)"/><circle cx="453" cy="235" r="170" fill="url(#glow)"/><g fill="#f6e8bd" opacity=".42"><circle cx="248" cy="328" r="3"/><circle cx="361" cy="407" r="4"/><circle cx="474" cy="486" r="1"/><circle cx="587" cy="85" r="2"/><circle cx="700" cy="164" r="3"/><circle cx="73" cy="243" r="4"/><circle cx="186" cy="322" r="1"/><circle cx="299" cy="401" r="2"/><circle cx="412" cy="480" r="3"/><circle cx="525" cy="79" r="4"/><circle cx="638" cy="158" r="1"/><circle cx="751" cy="237" r="2"/><circle cx="124" cy="316" r="3"/><circle cx="237" cy="395" r="4"/><circle cx="350" cy="474" r="1"/><circle cx="463" cy="73" r="2"/><circle cx="576" cy="152" r="3"/><circle cx="689" cy="231" r="4"/><circle cx="62" cy="310" r="1"/><circle cx="175" cy="389" r="2"/><circle cx="288" cy="468" r="3"/><circle cx="401" cy="67" r="4"/></g><g fill="none" stroke="#e9cc7c" opacity=".31"><path d="M400 170C670 250,650 650,400 720C130 630,145 280,400 170Z"/><path d="M400 188C646 287,630 632,400 711C148 622,168 308,400 188Z"/><path d="M400 206C622 324,610 614,400 702C166 614,191 336,400 206Z"/><path d="M400 224C598 361,590 596,400 693C184 606,214 364,400 224Z"/><path d="M400 242C574 398,570 578,400 684C202 598,237 392,400 242Z"/><path d="M400 260C550 435,550 560,400 675C220 590,260 420,400 260Z"/><path d="M400 278C526 472,530 542,400 666C238 582,283 448,400 278Z"/></g><path d="M0 710L125 658 245 690 390 312 545 675 690 490 800 700V1000H0Z" fill="#061016" opacity=".82"/><path d="M0 805Q180 743 400 795T800 780V1000H0Z" fill="#02070b"/><ellipse cx="400" cy="810" rx="390" ry="38" fill="hsl(278 60% 63%)" opacity=".1" filter="url(#blur)"/><path d="M0 820Q200 770 400 820T800 810" fill="none" stroke="#e9cc7c" stroke-opacity=".18" stroke-width="4"/></svg>