<svg xmlns="http://www.w3.org/2000/svg" viewBox="0 0 800 1000" role="img" aria-label="Artwork individual Hutan Pagi Embun: lanskap simbolik atmosfer horor &amp; takut dengan motif napas semesta"><defs><linearGradient id="sky" x2=".72" y2="1"><stop stop-color="#030810"/><stop offset=".5" stop-color="#285e38"/><stop offset="1" stop-color="#020609"/></linearGradient><radialGradient id="glow"><stop stop-color="hsl(106 75% 84%)" stop-opacity=".78"/><stop offset="1" stop-color="hsl(106 70% 62%)" stop-opacity="0"/></radialGradient><filter id="blur"><feGaussianBlur stdDeviation="24"/></filter></defs><rect width="800" height="1000" fill="url(#sky)"/><circle cx="491" cy="235" r="170" fill="url(#glow)"/><g fill="#f6e8bd" opacity=".42"><circle cx="236" cy="396" r="3"/><circle cx="349" cy="475" r="4"/><circle cx="462" cy="74" r="1"/><circle cx="575" cy="153" r="2"/><circle cx="688" cy="232" r="3"/><circle cx="61" cy="311" r="4"/><circle cx="174" cy="390" r="1"/><circle cx="287" cy="469" r="2"/><circle cx="400" cy="68" r="3"/><circle cx="513" cy="147" r="4"/><circle cx="626" cy="226" r="1"/><circle cx="739" cy="305" r="2"/><circle cx="112" cy="384" r="3"/><circle cx="225" cy="463" r="4"/><circle cx="338" cy="62" r="1"/><circle cx="451" cy="141" r="2"/><circle cx="564" cy="220" r="3"/><circle cx="677" cy="299" r="4"/><circle cx="50" cy="378" r="1"/><circle cx="163" cy="457" r="2"/><circle cx="276" cy="56" r="3"/><circle cx="389" cy="135" r="4"/></g><g fill="#020a0c" opacity=".84"><path d="M20 760l44 -250 48 250z"/><path d="M118 760l53 -281 60 281z"/><path d="M216 760l62 -312 48 312z"/><path d="M314 760l44 -343 60 343z"/><path d="M412 760l53 -374 48 374z"/><path d="M510 760l62 -405 60 405z"/><path d="M608 760l44 -436 48 436z"/><path d="M706 760l53 -277 60 277z"/><path d="M804 760l62 -308 48 308z"/></g><path d="M0 710L125 566 245 690 390 381 545 675 690 456 800 700V1000H0Z" fill="#061016" opacity=".82"/><path d="M0 805Q180 761 400 795T800 780V1000H0Z" fill="#02070b"/><ellipse cx="400" cy="810" rx="390" ry="38" fill="hsl(106 60% 63%)" opacity=".1" filter="url(#blur)"/><path d="M0 820Q200 770 400 820T800 810" fill="none" stroke="#e9cc7c" stroke-opacity=".18" stroke-width="4"/></svg>