<svg xmlns="http://www.w3.org/2000/svg" viewBox="0 0 800 1000" role="img" aria-label="Artwork individual Bell Lucid Trigger: lanskap simbolik persiapan lucid dream dengan motif taman bayang"><defs><linearGradient id="sky" x2=".72" y2="1"><stop stop-color="#030810"/><stop offset=".5" stop-color="#48418f"/><stop offset="1" stop-color="#020609"/></linearGradient><radialGradient id="glow"><stop stop-color="hsl(89 75% 84%)" stop-opacity=".78"/><stop offset="1" stop-color="hsl(89 70% 62%)" stop-opacity="0"/></radialGradient><filter id="blur"><feGaussianBlur stdDeviation="24"/></filter></defs><rect width="800" height="1000" fill="url(#sky)"/><circle cx="504" cy="235" r="170" fill="url(#glow)"/><g fill="#f6e8bd" opacity=".42"><circle cx="199" cy="499" r="2"/><circle cx="312" cy="98" r="3"/><circle cx="425" cy="177" r="4"/><circle cx="538" cy="256" r="1"/><circle cx="651" cy="335" r="2"/><circle cx="764" cy="414" r="3"/><circle cx="137" cy="493" r="4"/><circle cx="250" cy="92" r="1"/><circle cx="363" cy="171" r="2"/><circle cx="476" cy="250" r="3"/><circle cx="589" cy="329" r="4"/><circle cx="702" cy="408" r="1"/><circle cx="75" cy="487" r="2"/><circle cx="188" cy="86" r="3"/><circle cx="301" cy="165" r="4"/><circle cx="414" cy="244" r="1"/><circle cx="527" cy="323" r="2"/><circle cx="640" cy="402" r="3"/><circle cx="753" cy="481" r="4"/><circle cx="126" cy="80" r="1"/><circle cx="239" cy="159" r="2"/><circle cx="352" cy="238" r="3"/></g><g fill="none" stroke="#e9cc7c" opacity=".34"><circle cx="400" cy="455" r="75"/><circle cx="400" cy="455" r="127"/><circle cx="400" cy="455" r="179"/><circle cx="400" cy="455" r="231"/><circle cx="400" cy="455" r="283"/><path d="M210 720Q400 610 590 720Q400 795 210 720Z" fill="#e9cc7c" fill-opacity=".12"/></g><path d="M0 710L125 639 245 690 390 546 545 675 690 622 800 700V1000H0Z" fill="#061016" opacity=".82"/><path d="M0 805Q180 734 400 795T800 780V1000H0Z" fill="#02070b"/><ellipse cx="400" cy="810" rx="390" ry="38" fill="hsl(89 60% 63%)" opacity=".1" filter="url(#blur)"/><path d="M0 820Q200 770 400 820T800 810" fill="none" stroke="#e9cc7c" stroke-opacity=".18" stroke-width="4"/></svg>