<svg xmlns="http://www.w3.org/2000/svg" viewBox="0 0 800 1000" role="img" aria-label="Artwork individual Rain Dreamweaver: lanskap simbolik persiapan lucid dream dengan motif jalur embun"><defs><linearGradient id="sky" x2=".72" y2="1"><stop stop-color="#030810"/><stop offset=".5" stop-color="#48418f"/><stop offset="1" stop-color="#020609"/></linearGradient><radialGradient id="glow"><stop stop-color="hsl(103 75% 84%)" stop-opacity=".78"/><stop offset="1" stop-color="hsl(103 70% 62%)" stop-opacity="0"/></radialGradient><filter id="blur"><feGaussianBlur stdDeviation="24"/></filter></defs><rect width="800" height="1000" fill="url(#sky)"/><circle cx="518" cy="235" r="170" fill="url(#glow)"/><g fill="#f6e8bd" opacity=".42"><circle cx="213" cy="513" r="4"/><circle cx="326" cy="112" r="1"/><circle cx="439" cy="191" r="2"/><circle cx="552" cy="270" r="3"/><circle cx="665" cy="349" r="4"/><circle cx="38" cy="428" r="1"/><circle cx="151" cy="507" r="2"/><circle cx="264" cy="106" r="3"/><circle cx="377" cy="185" r="4"/><circle cx="490" cy="264" r="1"/><circle cx="603" cy="343" r="2"/><circle cx="716" cy="422" r="3"/><circle cx="89" cy="501" r="4"/><circle cx="202" cy="100" r="1"/><circle cx="315" cy="179" r="2"/><circle cx="428" cy="258" r="3"/><circle cx="541" cy="337" r="4"/><circle cx="654" cy="416" r="1"/><circle cx="767" cy="495" r="2"/><circle cx="140" cy="94" r="3"/><circle cx="253" cy="173" r="4"/><circle cx="366" cy="252" r="1"/></g><g stroke="#e9cc7c" stroke-linecap="round" opacity=".28"><path d="M363 120l-8 28"/><path d="M434 203l-9 29"/><path d="M505 286l-10 30"/><path d="M576 369l-11 31"/><path d="M647 452l-12 32"/><path d="M718 535l-13 33"/><path d="M789 618l-14 34"/><path d="M40 701l-15 35"/><path d="M111 194l-8 36"/><path d="M182 277l-9 37"/><path d="M253 360l-10 38"/><path d="M324 443l-11 39"/><path d="M395 526l-12 40"/><path d="M466 609l-13 41"/><path d="M537 692l-14 42"/><path d="M608 185l-15 43"/><path d="M679 268l-8 44"/><path d="M750 351l-9 45"/><path d="M1 434l-10 46"/><path d="M72 517l-11 47"/><path d="M143 600l-12 48"/><path d="M214 683l-13 49"/><path d="M285 176l-14 50"/><path d="M356 259l-15 51"/><path d="M427 342l-8 52"/><path d="M498 425l-9 53"/><path d="M569 508l-10 54"/><path d="M640 591l-11 55"/><path d="M711 674l-12 56"/><path d="M782 167l-13 28"/><path d="M33 250l-14 29"/><path d="M104 333l-15 30"/><path d="M175 416l-8 31"/><path d="M246 499l-9 32"/></g><path d="M0 710L125 653 245 690 390 547 545 675 690 622 800 700V1000H0Z" fill="#061016" opacity=".82"/><path d="M0 805Q180 748 400 795T800 780V1000H0Z" fill="#02070b"/><ellipse cx="400" cy="810" rx="390" ry="38" fill="hsl(103 60% 63%)" opacity=".1" filter="url(#blur)"/><path d="M0 820Q200 770 400 820T800 810" fill="none" stroke="#e9cc7c" stroke-opacity=".18" stroke-width="4"/></svg>