<svg xmlns="http://www.w3.org/2000/svg" viewBox="0 0 800 1000" role="img" aria-label="Artwork individual Anapanasati Breath 4Hz: lanskap simbolik meditasi dengan motif arus pertama"><defs><linearGradient id="sky" x2=".72" y2="1"><stop stop-color="#030810"/><stop offset=".5" stop-color="#654199"/><stop offset="1" stop-color="#020609"/></linearGradient><radialGradient id="glow"><stop stop-color="hsl(214 75% 84%)" stop-opacity=".78"/><stop offset="1" stop-color="hsl(214 70% 62%)" stop-opacity="0"/></radialGradient><filter id="blur"><feGaussianBlur stdDeviation="24"/></filter></defs><rect width="800" height="1000" fill="url(#sky)"/><circle cx="569" cy="235" r="170" fill="url(#glow)"/><g fill="#f6e8bd" opacity=".42"><circle cx="124" cy="264" r="3"/><circle cx="237" cy="343" r="4"/><circle cx="350" cy="422" r="1"/><circle cx="463" cy="501" r="2"/><circle cx="576" cy="100" r="3"/><circle cx="689" cy="179" r="4"/><circle cx="62" cy="258" r="1"/><circle cx="175" cy="337" r="2"/><circle cx="288" cy="416" r="3"/><circle cx="401" cy="495" r="4"/><circle cx="514" cy="94" r="1"/><circle cx="627" cy="173" r="2"/><circle cx="740" cy="252" r="3"/><circle cx="113" cy="331" r="4"/><circle cx="226" cy="410" r="1"/><circle cx="339" cy="489" r="2"/><circle cx="452" cy="88" r="3"/><circle cx="565" cy="167" r="4"/><circle cx="678" cy="246" r="1"/><circle cx="51" cy="325" r="2"/><circle cx="164" cy="404" r="3"/><circle cx="277" cy="483" r="4"/></g><g fill="none" stroke="#e9cc7c" opacity=".34"><circle cx="400" cy="455" r="75"/><circle cx="400" cy="455" r="127"/><circle cx="400" cy="455" r="179"/><circle cx="400" cy="455" r="231"/><circle cx="400" cy="455" r="283"/><path d="M210 720Q400 610 590 720Q400 795 210 720Z" fill="#e9cc7c" fill-opacity=".12"/></g><path d="M0 710L125 614 245 690 390 484 545 675 690 469 800 700V1000H0Z" fill="#061016" opacity=".82"/><path d="M0 805Q180 754 400 795T800 780V1000H0Z" fill="#02070b"/><ellipse cx="400" cy="810" rx="390" ry="38" fill="hsl(214 60% 63%)" opacity=".1" filter="url(#blur)"/><path d="M0 820Q200 770 400 820T800 810" fill="none" stroke="#e9cc7c" stroke-opacity=".18" stroke-width="4"/></svg>