<svg xmlns="http://www.w3.org/2000/svg" viewBox="0 0 800 1000" role="img" aria-label="Artwork individual Sungai Gunung Mengalir: lanskap simbolik imersi alam dengan motif cahaya dalam"><defs><linearGradient id="sky" x2=".72" y2="1"><stop stop-color="#030810"/><stop offset=".5" stop-color="#246a3a"/><stop offset="1" stop-color="#020609"/></linearGradient><radialGradient id="glow"><stop stop-color="hsl(96 75% 84%)" stop-opacity=".78"/><stop offset="1" stop-color="hsl(96 70% 62%)" stop-opacity="0"/></radialGradient><filter id="blur"><feGaussianBlur stdDeviation="24"/></filter></defs><rect width="800" height="1000" fill="url(#sky)"/><circle cx="181" cy="235" r="170" fill="url(#glow)"/><g fill="#f6e8bd" opacity=".42"><circle cx="126" cy="146" r="1"/><circle cx="239" cy="225" r="2"/><circle cx="352" cy="304" r="3"/><circle cx="465" cy="383" r="4"/><circle cx="578" cy="462" r="1"/><circle cx="691" cy="61" r="2"/><circle cx="64" cy="140" r="3"/><circle cx="177" cy="219" r="4"/><circle cx="290" cy="298" r="1"/><circle cx="403" cy="377" r="2"/><circle cx="516" cy="456" r="3"/><circle cx="629" cy="55" r="4"/><circle cx="742" cy="134" r="1"/><circle cx="115" cy="213" r="2"/><circle cx="228" cy="292" r="3"/><circle cx="341" cy="371" r="4"/><circle cx="454" cy="450" r="1"/><circle cx="567" cy="529" r="2"/><circle cx="680" cy="128" r="3"/><circle cx="53" cy="207" r="4"/><circle cx="166" cy="286" r="1"/><circle cx="279" cy="365" r="2"/></g><g fill="none" stroke="#e9cc7c" opacity=".3"><circle cx="400" cy="410" r="210"/><path d="M175 690Q400 496 625 690M250 755Q400 576 550 755"/></g><path d="M0 710L125 656 245 690 390 502 545 675 690 636 800 700V1000H0Z" fill="#061016" opacity=".82"/><path d="M0 805Q180 731 400 795T800 780V1000H0Z" fill="#02070b"/><ellipse cx="400" cy="810" rx="390" ry="38" fill="hsl(96 60% 63%)" opacity=".1" filter="url(#blur)"/><path d="M0 820Q200 770 400 820T800 810" fill="none" stroke="#e9cc7c" stroke-opacity=".18" stroke-width="4"/></svg>