<svg xmlns="http://www.w3.org/2000/svg" viewBox="0 0 800 1000" role="img" aria-label="Artwork individual Simfoni Hutan Pagi Lengkap: lanskap simbolik imersi alam dengan motif gerbang sunyi"><defs><linearGradient id="sky" x2=".72" y2="1"><stop stop-color="#030810"/><stop offset=".5" stop-color="#246a3a"/><stop offset="1" stop-color="#020609"/></linearGradient><radialGradient id="glow"><stop stop-color="hsl(101 75% 84%)" stop-opacity=".78"/><stop offset="1" stop-color="hsl(101 70% 62%)" stop-opacity="0"/></radialGradient><filter id="blur"><feGaussianBlur stdDeviation="24"/></filter></defs><rect width="800" height="1000" fill="url(#sky)"/><circle cx="186" cy="235" r="170" fill="url(#glow)"/><g fill="#f6e8bd" opacity=".42"><circle cx="131" cy="151" r="2"/><circle cx="244" cy="230" r="3"/><circle cx="357" cy="309" r="4"/><circle cx="470" cy="388" r="1"/><circle cx="583" cy="467" r="2"/><circle cx="696" cy="66" r="3"/><circle cx="69" cy="145" r="4"/><circle cx="182" cy="224" r="1"/><circle cx="295" cy="303" r="2"/><circle cx="408" cy="382" r="3"/><circle cx="521" cy="461" r="4"/><circle cx="634" cy="60" r="1"/><circle cx="747" cy="139" r="2"/><circle cx="120" cy="218" r="3"/><circle cx="233" cy="297" r="4"/><circle cx="346" cy="376" r="1"/><circle cx="459" cy="455" r="2"/><circle cx="572" cy="54" r="3"/><circle cx="685" cy="133" r="4"/><circle cx="58" cy="212" r="1"/><circle cx="171" cy="291" r="2"/><circle cx="284" cy="370" r="3"/></g><g fill="#020a0c" opacity=".84"><path d="M20 760l44 -250 48 250z"/><path d="M118 760l53 -281 60 281z"/><path d="M216 760l62 -312 48 312z"/><path d="M314 760l44 -343 60 343z"/><path d="M412 760l53 -374 48 374z"/><path d="M510 760l62 -405 60 405z"/><path d="M608 760l44 -436 48 436z"/><path d="M706 760l53 -277 60 277z"/><path d="M804 760l62 -308 48 308z"/></g><path d="M0 710L125 531 245 690 390 502 545 675 690 636 800 700V1000H0Z" fill="#061016" opacity=".82"/><path d="M0 805Q180 736 400 795T800 780V1000H0Z" fill="#02070b"/><ellipse cx="400" cy="810" rx="390" ry="38" fill="hsl(101 60% 63%)" opacity=".1" filter="url(#blur)"/><path d="M0 820Q200 770 400 820T800 810" fill="none" stroke="#e9cc7c" stroke-opacity=".18" stroke-width="4"/></svg>