<svg xmlns="http://www.w3.org/2000/svg" viewBox="0 0 800 1000" role="img" aria-label="Artwork individual Hujan Temple Bowl 432: lanskap simbolik noise &amp; masking dengan motif pulang perlahan"><defs><linearGradient id="sky" x2=".72" y2="1"><stop stop-color="#030810"/><stop offset=".5" stop-color="#3d5269"/><stop offset="1" stop-color="#020609"/></linearGradient><radialGradient id="glow"><stop stop-color="hsl(36 75% 84%)" stop-opacity=".78"/><stop offset="1" stop-color="hsl(36 70% 62%)" stop-opacity="0"/></radialGradient><filter id="blur"><feGaussianBlur stdDeviation="24"/></filter></defs><rect width="800" height="1000" fill="url(#sky)"/><circle cx="451" cy="235" r="170" fill="url(#glow)"/><g fill="#f6e8bd" opacity=".42"><circle cx="346" cy="446" r="1"/><circle cx="459" cy="525" r="2"/><circle cx="572" cy="124" r="3"/><circle cx="685" cy="203" r="4"/><circle cx="58" cy="282" r="1"/><circle cx="171" cy="361" r="2"/><circle cx="284" cy="440" r="3"/><circle cx="397" cy="519" r="4"/><circle cx="510" cy="118" r="1"/><circle cx="623" cy="197" r="2"/><circle cx="736" cy="276" r="3"/><circle cx="109" cy="355" r="4"/><circle cx="222" cy="434" r="1"/><circle cx="335" cy="513" r="2"/><circle cx="448" cy="112" r="3"/><circle cx="561" cy="191" r="4"/><circle cx="674" cy="270" r="1"/><circle cx="47" cy="349" r="2"/><circle cx="160" cy="428" r="3"/><circle cx="273" cy="507" r="4"/><circle cx="386" cy="106" r="1"/><circle cx="499" cy="185" r="2"/></g><g stroke="#e9cc7c" stroke-linecap="round" opacity=".28"><path d="M56 120l-8 28"/><path d="M127 203l-9 29"/><path d="M198 286l-10 30"/><path d="M269 369l-11 31"/><path d="M340 452l-12 32"/><path d="M411 535l-13 33"/><path d="M482 618l-14 34"/><path d="M553 701l-15 35"/><path d="M624 194l-8 36"/><path d="M695 277l-9 37"/><path d="M766 360l-10 38"/><path d="M17 443l-11 39"/><path d="M88 526l-12 40"/><path d="M159 609l-13 41"/><path d="M230 692l-14 42"/><path d="M301 185l-15 43"/><path d="M372 268l-8 44"/><path d="M443 351l-9 45"/><path d="M514 434l-10 46"/><path d="M585 517l-11 47"/><path d="M656 600l-12 48"/><path d="M727 683l-13 49"/><path d="M798 176l-14 50"/><path d="M49 259l-15 51"/><path d="M120 342l-8 52"/><path d="M191 425l-9 53"/><path d="M262 508l-10 54"/><path d="M333 591l-11 55"/><path d="M404 674l-12 56"/><path d="M475 167l-13 28"/><path d="M546 250l-14 29"/><path d="M617 333l-15 30"/><path d="M688 416l-8 31"/><path d="M759 499l-9 32"/></g><path d="M0 710L125 586 245 690 390 539 545 675 690 588 800 700V1000H0Z" fill="#061016" opacity=".82"/><path d="M0 805Q180 756 400 795T800 780V1000H0Z" fill="#02070b"/><ellipse cx="400" cy="810" rx="390" ry="38" fill="hsl(36 60% 63%)" opacity=".1" filter="url(#blur)"/><path d="M0 820Q200 770 400 820T800 810" fill="none" stroke="#e9cc7c" stroke-opacity=".18" stroke-width="4"/></svg>