<svg xmlns="http://www.w3.org/2000/svg" viewBox="0 0 800 1000" role="img" aria-label="Artwork individual Space Psy Journey: lanskap simbolik persepsi &amp; psychedelic-style dengan motif pulang perlahan"><defs><linearGradient id="sky" x2=".72" y2="1"><stop stop-color="#030810"/><stop offset=".5" stop-color="#76357e"/><stop offset="1" stop-color="#020609"/></linearGradient><radialGradient id="glow"><stop stop-color="hsl(114 75% 84%)" stop-opacity=".78"/><stop offset="1" stop-color="hsl(114 70% 62%)" stop-opacity="0"/></radialGradient><filter id="blur"><feGaussianBlur stdDeviation="24"/></filter></defs><rect width="800" height="1000" fill="url(#sky)"/><circle cx="229" cy="235" r="170" fill="url(#glow)"/><g fill="#f6e8bd" opacity=".42"><circle cx="604" cy="404" r="3"/><circle cx="717" cy="483" r="4"/><circle cx="90" cy="82" r="1"/><circle cx="203" cy="161" r="2"/><circle cx="316" cy="240" r="3"/><circle cx="429" cy="319" r="4"/><circle cx="542" cy="398" r="1"/><circle cx="655" cy="477" r="2"/><circle cx="768" cy="76" r="3"/><circle cx="141" cy="155" r="4"/><circle cx="254" cy="234" r="1"/><circle cx="367" cy="313" r="2"/><circle cx="480" cy="392" r="3"/><circle cx="593" cy="471" r="4"/><circle cx="706" cy="70" r="1"/><circle cx="79" cy="149" r="2"/><circle cx="192" cy="228" r="3"/><circle cx="305" cy="307" r="4"/><circle cx="418" cy="386" r="1"/><circle cx="531" cy="465" r="2"/><circle cx="644" cy="64" r="3"/><circle cx="757" cy="143" r="4"/></g><g fill="none" stroke="#e9cc7c" opacity=".32"><ellipse cx="400" cy="420" rx="270" ry="92" transform="rotate(19 400 420)"/><ellipse cx="400" cy="420" rx="180" ry="310" transform="rotate(34 400 420)"/><circle cx="400" cy="420" r="58" fill="#e9cc7c" fill-opacity=".14"/></g><path d="M0 710L125 534 245 690 390 382 545 675 690 496 800 700V1000H0Z" fill="#061016" opacity=".82"/><path d="M0 805Q180 734 400 795T800 780V1000H0Z" fill="#02070b"/><ellipse cx="400" cy="810" rx="390" ry="38" fill="hsl(114 60% 63%)" opacity=".1" filter="url(#blur)"/><path d="M0 820Q200 770 400 820T800 810" fill="none" stroke="#e9cc7c" stroke-opacity=".18" stroke-width="4"/></svg>