<svg xmlns="http://www.w3.org/2000/svg" viewBox="0 0 800 1000" role="img" aria-label="Artwork individual Midnight Ocean Delta Drift: lanskap simbolik tidur dengan motif arus pertama"><defs><linearGradient id="sky" x2=".72" y2="1"><stop stop-color="#030810"/><stop offset=".5" stop-color="#34266f"/><stop offset="1" stop-color="#020609"/></linearGradient><radialGradient id="glow"><stop stop-color="hsl(261 75% 84%)" stop-opacity=".78"/><stop offset="1" stop-color="hsl(261 70% 62%)" stop-opacity="0"/></radialGradient><filter id="blur"><feGaussianBlur stdDeviation="24"/></filter></defs><rect width="800" height="1000" fill="url(#sky)"/><circle cx="346" cy="235" r="170" fill="url(#glow)"/><g fill="#f6e8bd" opacity=".42"><circle cx="151" cy="71" r="2"/><circle cx="264" cy="150" r="3"/><circle cx="377" cy="229" r="4"/><circle cx="490" cy="308" r="1"/><circle cx="603" cy="387" r="2"/><circle cx="716" cy="466" r="3"/><circle cx="89" cy="65" r="4"/><circle cx="202" cy="144" r="1"/><circle cx="315" cy="223" r="2"/><circle cx="428" cy="302" r="3"/><circle cx="541" cy="381" r="4"/><circle cx="654" cy="460" r="1"/><circle cx="767" cy="59" r="2"/><circle cx="140" cy="138" r="3"/><circle cx="253" cy="217" r="4"/><circle cx="366" cy="296" r="1"/><circle cx="479" cy="375" r="2"/><circle cx="592" cy="454" r="3"/><circle cx="705" cy="53" r="4"/><circle cx="78" cy="132" r="1"/><circle cx="191" cy="211" r="2"/><circle cx="304" cy="290" r="3"/></g><g fill="none" stroke="#e9cc7c" stroke-opacity=".28"><path d="M-80 520 Q150 450 390 530 T860 520" stroke-width="3"/><path d="M-80 582 Q150 514 390 589 T860 582" stroke-width="4"/><path d="M-80 644 Q150 578 390 648 T860 644" stroke-width="5"/><path d="M-80 706 Q150 642 390 707 T860 706" stroke-width="6"/><path d="M-80 768 Q150 706 390 766 T860 768" stroke-width="7"/></g><path d="M0 710L125 561 245 690 390 400 545 675 690 423 800 700V1000H0Z" fill="#061016" opacity=".82"/><path d="M0 805Q180 736 400 795T800 780V1000H0Z" fill="#02070b"/><ellipse cx="400" cy="810" rx="390" ry="38" fill="hsl(261 60% 63%)" opacity=".1" filter="url(#blur)"/><path d="M0 820Q200 770 400 820T800 810" fill="none" stroke="#e9cc7c" stroke-opacity=".18" stroke-width="4"/></svg>