<svg xmlns="http://www.w3.org/2000/svg" viewBox="0 0 800 1000" role="img" aria-label="Artwork individual Deep Sleep Delta Rain Temple: lanskap simbolik tidur dengan motif gerbang sunyi"><defs><linearGradient id="sky" x2=".72" y2="1"><stop stop-color="#030810"/><stop offset=".5" stop-color="#34266f"/><stop offset="1" stop-color="#020609"/></linearGradient><radialGradient id="glow"><stop stop-color="hsl(262 75% 84%)" stop-opacity=".78"/><stop offset="1" stop-color="hsl(262 70% 62%)" stop-opacity="0"/></radialGradient><filter id="blur"><feGaussianBlur stdDeviation="24"/></filter></defs><rect width="800" height="1000" fill="url(#sky)"/><circle cx="347" cy="235" r="170" fill="url(#glow)"/><g fill="#f6e8bd" opacity=".42"><circle cx="152" cy="72" r="3"/><circle cx="265" cy="151" r="4"/><circle cx="378" cy="230" r="1"/><circle cx="491" cy="309" r="2"/><circle cx="604" cy="388" r="3"/><circle cx="717" cy="467" r="4"/><circle cx="90" cy="66" r="1"/><circle cx="203" cy="145" r="2"/><circle cx="316" cy="224" r="3"/><circle cx="429" cy="303" r="4"/><circle cx="542" cy="382" r="1"/><circle cx="655" cy="461" r="2"/><circle cx="768" cy="60" r="3"/><circle cx="141" cy="139" r="4"/><circle cx="254" cy="218" r="1"/><circle cx="367" cy="297" r="2"/><circle cx="480" cy="376" r="3"/><circle cx="593" cy="455" r="4"/><circle cx="706" cy="54" r="1"/><circle cx="79" cy="133" r="2"/><circle cx="192" cy="212" r="3"/><circle cx="305" cy="291" r="4"/></g><g stroke="#e9cc7c" stroke-linecap="round" opacity=".28"><path d="M662 120l-8 28"/><path d="M733 203l-9 29"/><path d="M804 286l-10 30"/><path d="M55 369l-11 31"/><path d="M126 452l-12 32"/><path d="M197 535l-13 33"/><path d="M268 618l-14 34"/><path d="M339 701l-15 35"/><path d="M410 194l-8 36"/><path d="M481 277l-9 37"/><path d="M552 360l-10 38"/><path d="M623 443l-11 39"/><path d="M694 526l-12 40"/><path d="M765 609l-13 41"/><path d="M16 692l-14 42"/><path d="M87 185l-15 43"/><path d="M158 268l-8 44"/><path d="M229 351l-9 45"/><path d="M300 434l-10 46"/><path d="M371 517l-11 47"/><path d="M442 600l-12 48"/><path d="M513 683l-13 49"/><path d="M584 176l-14 50"/><path d="M655 259l-15 51"/><path d="M726 342l-8 52"/><path d="M797 425l-9 53"/><path d="M48 508l-10 54"/><path d="M119 591l-11 55"/><path d="M190 674l-12 56"/><path d="M261 167l-13 28"/><path d="M332 250l-14 29"/><path d="M403 333l-15 30"/><path d="M474 416l-8 31"/><path d="M545 499l-9 32"/></g><path d="M0 710L125 562 245 690 390 400 545 675 690 423 800 700V1000H0Z" fill="#061016" opacity=".82"/><path d="M0 805Q180 737 400 795T800 780V1000H0Z" fill="#02070b"/><ellipse cx="400" cy="810" rx="390" ry="38" fill="hsl(262 60% 63%)" opacity=".1" filter="url(#blur)"/><path d="M0 820Q200 770 400 820T800 810" fill="none" stroke="#e9cc7c" stroke-opacity=".18" stroke-width="4"/></svg>