<svg xmlns="http://www.w3.org/2000/svg" viewBox="0 0 800 1000" role="img" aria-label="Artwork individual Stream + Bell 25s: lanskap simbolik belajar dengan motif horizon pelan"><defs><linearGradient id="sky" x2=".72" y2="1"><stop stop-color="#030810"/><stop offset=".5" stop-color="#275b9d"/><stop offset="1" stop-color="#020609"/></linearGradient><radialGradient id="glow"><stop stop-color="hsl(168 75% 84%)" stop-opacity=".78"/><stop offset="1" stop-color="hsl(168 70% 62%)" stop-opacity="0"/></radialGradient><filter id="blur"><feGaussianBlur stdDeviation="24"/></filter></defs><rect width="800" height="1000" fill="url(#sky)"/><circle cx="493" cy="235" r="170" fill="url(#glow)"/><g fill="#f6e8bd" opacity=".42"><circle cx="358" cy="98" r="1"/><circle cx="471" cy="177" r="2"/><circle cx="584" cy="256" r="3"/><circle cx="697" cy="335" r="4"/><circle cx="70" cy="414" r="1"/><circle cx="183" cy="493" r="2"/><circle cx="296" cy="92" r="3"/><circle cx="409" cy="171" r="4"/><circle cx="522" cy="250" r="1"/><circle cx="635" cy="329" r="2"/><circle cx="748" cy="408" r="3"/><circle cx="121" cy="487" r="4"/><circle cx="234" cy="86" r="1"/><circle cx="347" cy="165" r="2"/><circle cx="460" cy="244" r="3"/><circle cx="573" cy="323" r="4"/><circle cx="686" cy="402" r="1"/><circle cx="59" cy="481" r="2"/><circle cx="172" cy="80" r="3"/><circle cx="285" cy="159" r="4"/><circle cx="398" cy="238" r="1"/><circle cx="511" cy="317" r="2"/></g><g fill="none" stroke="#e9cc7c" opacity=".34"><circle cx="400" cy="455" r="75"/><circle cx="400" cy="455" r="127"/><circle cx="400" cy="455" r="179"/><circle cx="400" cy="455" r="231"/><circle cx="400" cy="455" r="283"/><path d="M210 720Q400 610 590 720Q400 795 210 720Z" fill="#e9cc7c" fill-opacity=".12"/></g><path d="M0 710L125 568 245 690 390 344 545 675 690 509 800 700V1000H0Z" fill="#061016" opacity=".82"/><path d="M0 805Q180 743 400 795T800 780V1000H0Z" fill="#02070b"/><ellipse cx="400" cy="810" rx="390" ry="38" fill="hsl(168 60% 63%)" opacity=".1" filter="url(#blur)"/><path d="M0 820Q200 770 400 820T800 810" fill="none" stroke="#e9cc7c" stroke-opacity=".18" stroke-width="4"/></svg>