<svg xmlns="http://www.w3.org/2000/svg" viewBox="0 0 800 1000" role="img" aria-label="Artwork individual Theta 6Hz Memory: lanskap simbolik belajar dengan motif napas semesta"><defs><linearGradient id="sky" x2=".72" y2="1"><stop stop-color="#030810"/><stop offset=".5" stop-color="#275b9d"/><stop offset="1" stop-color="#020609"/></linearGradient><radialGradient id="glow"><stop stop-color="hsl(182 75% 84%)" stop-opacity=".78"/><stop offset="1" stop-color="hsl(182 70% 62%)" stop-opacity="0"/></radialGradient><filter id="blur"><feGaussianBlur stdDeviation="24"/></filter></defs><rect width="800" height="1000" fill="url(#sky)"/><circle cx="507" cy="235" r="170" fill="url(#glow)"/><g fill="#f6e8bd" opacity=".42"><circle cx="372" cy="112" r="3"/><circle cx="485" cy="191" r="4"/><circle cx="598" cy="270" r="1"/><circle cx="711" cy="349" r="2"/><circle cx="84" cy="428" r="3"/><circle cx="197" cy="507" r="4"/><circle cx="310" cy="106" r="1"/><circle cx="423" cy="185" r="2"/><circle cx="536" cy="264" r="3"/><circle cx="649" cy="343" r="4"/><circle cx="762" cy="422" r="1"/><circle cx="135" cy="501" r="2"/><circle cx="248" cy="100" r="3"/><circle cx="361" cy="179" r="4"/><circle cx="474" cy="258" r="1"/><circle cx="587" cy="337" r="2"/><circle cx="700" cy="416" r="3"/><circle cx="73" cy="495" r="4"/><circle cx="186" cy="94" r="1"/><circle cx="299" cy="173" r="2"/><circle cx="412" cy="252" r="3"/><circle cx="525" cy="331" r="4"/></g><g fill="none" stroke="#e9cc7c" opacity=".3"><path d="M85 760L400 210 715 760"/><path d="M127 760L400 232 673 760"/><path d="M169 760L400 254 631 760"/><path d="M211 760L400 276 589 760"/><path d="M253 760L400 298 547 760"/><circle cx="400" cy="410" r="72"/></g><path d="M0 710L125 582 245 690 390 345 545 675 690 509 800 700V1000H0Z" fill="#061016" opacity=".82"/><path d="M0 805Q180 757 400 795T800 780V1000H0Z" fill="#02070b"/><ellipse cx="400" cy="810" rx="390" ry="38" fill="hsl(182 60% 63%)" opacity=".1" filter="url(#blur)"/><path d="M0 820Q200 770 400 820T800 810" fill="none" stroke="#e9cc7c" stroke-opacity=".18" stroke-width="4"/></svg>