<svg xmlns="http://www.w3.org/2000/svg" viewBox="0 0 800 1000" role="img" aria-label="Artwork individual Bell Chakra Balance: lanskap simbolik visualisasi &amp; astral-style dengan motif pulang perlahan"><defs><linearGradient id="sky" x2=".72" y2="1"><stop stop-color="#030810"/><stop offset=".5" stop-color="#915c24"/><stop offset="1" stop-color="#020609"/></linearGradient><radialGradient id="glow"><stop stop-color="hsl(47 75% 84%)" stop-opacity=".78"/><stop offset="1" stop-color="hsl(47 70% 62%)" stop-opacity="0"/></radialGradient><filter id="blur"><feGaussianBlur stdDeviation="24"/></filter></defs><rect width="800" height="1000" fill="url(#sky)"/><circle cx="222" cy="235" r="170" fill="url(#glow)"/><g fill="#f6e8bd" opacity=".42"><circle cx="257" cy="337" r="4"/><circle cx="370" cy="416" r="1"/><circle cx="483" cy="495" r="2"/><circle cx="596" cy="94" r="3"/><circle cx="709" cy="173" r="4"/><circle cx="82" cy="252" r="1"/><circle cx="195" cy="331" r="2"/><circle cx="308" cy="410" r="3"/><circle cx="421" cy="489" r="4"/><circle cx="534" cy="88" r="1"/><circle cx="647" cy="167" r="2"/><circle cx="760" cy="246" r="3"/><circle cx="133" cy="325" r="4"/><circle cx="246" cy="404" r="1"/><circle cx="359" cy="483" r="2"/><circle cx="472" cy="82" r="3"/><circle cx="585" cy="161" r="4"/><circle cx="698" cy="240" r="1"/><circle cx="71" cy="319" r="2"/><circle cx="184" cy="398" r="3"/><circle cx="297" cy="477" r="4"/><circle cx="410" cy="76" r="1"/></g><g fill="none" stroke="#e9cc7c" opacity=".34"><circle cx="400" cy="455" r="75"/><circle cx="400" cy="455" r="127"/><circle cx="400" cy="455" r="179"/><circle cx="400" cy="455" r="231"/><circle cx="400" cy="455" r="283"/><path d="M210 720Q400 610 590 720Q400 795 210 720Z" fill="#e9cc7c" fill-opacity=".12"/></g><path d="M0 710L125 627 245 690 390 373 545 675 690 432 800 700V1000H0Z" fill="#061016" opacity=".82"/><path d="M0 805Q180 757 400 795T800 780V1000H0Z" fill="#02070b"/><ellipse cx="400" cy="810" rx="390" ry="38" fill="hsl(47 60% 63%)" opacity=".1" filter="url(#blur)"/><path d="M0 820Q200 770 400 820T800 810" fill="none" stroke="#e9cc7c" stroke-opacity=".18" stroke-width="4"/></svg>